<?xml version="1.0" encoding="utf-8"?>
<!-- Generator: Adobe Illustrator 23.0.0, SVG Export Plug-In . SVG Version: 6.00 Build 0)  -->
<svg version="1.1" id="Layer_1" xmlns="http://www.w3.org/2000/svg" xmlns:xlink="http://www.w3.org/1999/xlink" x="0px" y="0px"
	 viewBox="0 0 100 100" enable-background="new 0 0 100 100" xml:space="preserve">
<g>
	<path fill="#FF033E" d="M79.11,33.98H61.75c-2.1-7.84-6.44-11.75-13.43-11.75c-3.64,0-5.88,1.68-5.88,4.48
		c0,3.5,1.26,4.34,16.52,9.51c9.79,3.5,14.97,6.3,18.61,10.64c4.06,4.76,6.57,12.59,6.57,20.43c0,17.91-12.03,31.2-28.27,31.2
		c-7.83,0-13.01-2.38-17.77-8.25l-2.24,6.44H18.1V65.74h17.77C39.79,73.16,44.4,76.66,50,76.66c3.63,0,6.3-2.24,6.3-5.18
		c0-3.22-2.52-5.04-9.23-6.86c-12.88-3.22-16.65-4.89-22.25-9.51c-5.6-4.48-8.96-13.15-8.96-22.95c0-9.1,3.08-17.63,8.39-23.37
		c4.62-4.9,11.19-7.28,19.87-7.28c7.7,0,11.9,1.54,17.35,6.3l1.82-4.48h15.81V33.98z"/>
</g>
<g>
</g>
<g>
</g>
<g>
</g>
<g>
</g>
<g>
</g>
</svg>
