<svg xmlns="http://www.w3.org/2000/svg" width="304" height="161" viewBox="0 0 304 161" class="paid-for-by">
    <g fill="none" fill-rule="evenodd">
        <path stroke="#FEFEFE" d="M20.125 111.185H269.36v-110H20.125z"/>
        <path fill="#181345" d="M37.125 147.633c-.5-9 0-12.625 0-12.625l.75-23.823h-17.75V83.758s4.898 1.202 6.391-.28c2.73-2.708 1.734-7.095 1.734-7.095 1.166-.167 2.861-1.034 3.736-3.784s-.947-5.452-.947-5.452c1.125-1.375 3.347-4.282 2.472-7.282s-5.636-7.232-5.636-7.232 1.375-.875.625-3.25-6.125-8.25-8.875-9.875c-3.269-1.93-8.5-1-10.25 0S5 41.883 5.875 45.133s4.5 5.25 3.625 7.75-6.75 8.125-7.625 15.5-.875 12.25.875 17.75 4.5 13.125 4.5 13.125l1.291 67.458h31.334s-2.25-10.083-2.75-19.083"/>
        <path stroke="#FEFEFE" d="M37.125 147.633c-.5-9 0-12.625 0-12.625l.75-23.823h-17.75V83.758s4.898 1.202 6.391-.28c2.73-2.708 1.734-7.095 1.734-7.095 1.166-.167 2.861-1.034 3.736-3.784s-.947-5.452-.947-5.452c1.125-1.375 3.347-4.282 2.472-7.282s-5.636-7.232-5.636-7.232 1.375-.875.625-3.25-6.125-8.25-8.875-9.875c-3.269-1.93-8.5-1-10.25 0S5 41.883 5.875 45.133s4.5 5.25 3.625 7.75-6.75 8.125-7.625 15.5-.875 12.25.875 17.75 4.5 13.125 4.5 13.125l1.291 67.458h31.334s-2.25-10.083-2.75-19.083"/>
        <path stroke="#FEFEFE" d="M20.125 83.758s4.898 1.202 6.391-.28c2.73-2.708 1.734-7.095 1.734-7.095 1.166-.167 2.861-1.034 3.736-3.784s-.947-5.452-.947-5.452c1.125-1.375 3.347-4.282 2.472-7.282s-5.636-7.232-5.636-7.232 1.375-.875.625-3.25-6.125-8.25-8.875-9.875c-3.269-1.93-8.5-1-10.25 0S5 41.883 5.875 45.133s4.5 5.25 3.625 7.75-6.75 8.125-7.625 15.5-.875 12.25.875 17.75 4.5 13.125 4.5 13.125l1.291 67.458h31.334s-2.25-10.083-2.75-19.083c-.5-9 0-12.625 0-12.625l.733-23.315"/>
        <path stroke="#FEFEFE" d="M31.04 67.147s-8.74-9.264-11.453-9.702c-2.712-.437-7.962 0-7.962 0M28.25 76.383s-8.313-7.375-11.91-7.375H6.187M20.125 83.758s-5.667-2.917-7.792-2.917H7.5M12.563 48.57h7.75c3.5 0 7.563 4.063 7.563 4.063"/>
        <path stroke="#FEFEFE" d="M17.219 82.385s-1.136.582-3.406 1.374c-2.272.79-4.688 1.458-4.688 1.458"/>
        <path fill="#181345" d="M269.142 111.787a28.825 28.825 0 0 1-.03-1.28V79.57s-1.584.646-1.668 1.98c-.083 1.333.625 6.27-2.314 6.27-2.936 0-3.5-5.875-3.5-8.313 0-4.687 2.171-5.963 2.171-5.963s-7.357 6.401-12.107 7.588c-4.75 1.188-7.25-1.125-6.939-2.312.314-1.188 21.064-18.625 22.94-19.125 1.874-.5 3.124-.5 3.124-.5s-1.189-2.188-3.25-2.625c-1.713-.363-6.256-.75-10.066.187-3.809.938-5.123 2.063-9.248 1.875-4.125-.187-5.186-1.937-4.81-2.937.374-1 6.685-5.688 12.935-6.875 6.25-1.188 13.25-1.125 13.25-1.125v-22.25c0-2.313 2.375-4.125 3.94-4.063 1.56.063 1.935 11.063 2.435 13.625.5 2.563 1.94 15.521 4.564 18.792 2.625 3.271 9.452 9.29 10.792 11.75 3.583 6.583 1.22 16.268.886 22.434-.333 6.167-2.126 17.85-2.126 17.85l3.073 18.217c1.375 5.333 9.993 38.968 9.993 38.968h-27.682s-2.322-22.977-3.197-27.352c-.813-4.069-2.883-17.588-3.166-23.878"/>
        <path stroke="#FEFEFE" d="M269.142 111.787a28.825 28.825 0 0 1-.03-1.28V79.57s-1.584.646-1.668 1.98c-.083 1.333.625 6.27-2.314 6.27-2.936 0-3.5-5.875-3.5-8.313 0-4.687 2.171-5.963 2.171-5.963s-7.357 6.401-12.107 7.588c-4.75 1.188-7.25-1.125-6.939-2.312.314-1.188 21.064-18.625 22.94-19.125 1.874-.5 3.124-.5 3.124-.5s-1.189-2.188-3.25-2.625c-1.713-.363-6.256-.75-10.066.187-3.809.938-5.123 2.063-9.248 1.875-4.125-.187-5.186-1.937-4.81-2.937.374-1 6.685-5.688 12.935-6.875 6.25-1.188 13.25-1.125 13.25-1.125v-22.25c0-2.313 2.375-4.125 3.94-4.063 1.56.063 1.935 11.063 2.435 13.625.5 2.563 1.94 15.521 4.564 18.792 2.625 3.271 9.452 9.29 10.792 11.75 3.583 6.583 1.22 16.268.886 22.434-.333 6.167-2.126 17.85-2.126 17.85l3.073 18.217c1.375 5.333 9.993 38.968 9.993 38.968h-27.682s-2.322-22.977-3.197-27.352c-.813-4.069-2.883-17.588-3.166-23.878"/>
        <path stroke="#1A1446" d="M285.443 64.382s-11.625-5.187-14.625-5.187"/>
        <path stroke="#FEFEFE" d="M284.88 70.882s-11.188-3.5-14.063-2.375c-2.874 1.125-4.709 3.165-7.016 5.037M281.029 54.35s-2.897-3.155-5.022-4.593c-2.125-1.437-3.561-2.115-6.375-2.062M273.11 88.069c-1.5 2.813-4 4.396-4 10.146M269.11 79.57v31.717"/>
        <path stroke="#FEFEFE" d="M269.11 79.57s-1.583.646-1.667 1.979c-.083 1.334.625 6.27-2.312 6.27-2.938 0-3.5-5.874-3.5-8.311 0-4.688 2.17-5.963 2.17-5.963s-7.358 6.4-12.108 7.587c-4.75 1.188-7.25-1.125-6.937-2.312.312-1.187 21.062-18.625 22.937-19.125s3.125-.5 3.125-.5-1.187-2.187-3.25-2.625c-1.712-.363-6.255-.75-10.063.188-3.812.937-5.124 2.062-9.249 1.875-4.125-.188-5.188-1.938-4.813-2.938.375-1 6.688-5.687 12.938-6.875 6.25-1.187 13.25-1.125 13.25-1.125v-22.25c0-2.313 2.375-4.125 3.937-4.063 1.563.063 1.938 11.063 2.438 13.625.5 2.563 1.937 15.52 4.562 18.792 2.625 3.27 9.453 9.29 10.792 11.75 3.583 6.584 1.223 16.268.889 22.435-.333 6.167-2.128 17.849-2.128 17.849l3.072 18.216c1.375 5.334 9.994 38.969 9.994 38.969h-27.681s-2.323-22.976-3.198-27.351c-.813-4.072-2.883-17.59-3.166-23.88"/>
        <path stroke="#FEFEFE" d="M269.11 79.57s3.271-2.313 4.396-2c1.125.313 2 3.125 2 3.125"/>
        <text class="svg-text" fill="#fff" font-family="Avenir-Book, Avenir, Montserrat, Arial, sans-serif" font-size="12" letter-spacing="-.019" transform="translate(1 1)">
            <tspan x="41.19" y="42">Paid for by The People for Shaun Scott</tspan> <tspan x="105.921" y="58">PO Box 45088</tspan> <tspan x="94.761" y="74">Seattle, WA 98145</tspan>
        </text>
    </g>
    <!-- <style>
        text.svg-text{
            fill: #fff;
        }
        text.svg-text:hover{
            fill:#ff033e;
        }
    </style> -->
</svg>
