<?xml version="1.0" encoding="UTF-8"?>
<svg width="215px" height="69px" viewBox="0 0 215 69" version="1.1" xmlns="http://www.w3.org/2000/svg" xmlns:xlink="http://www.w3.org/1999/xlink">
    <!-- Generator: Sketch 52.4 (67378) - http://www.bohemiancoding.com/sketch -->
    <title>Logo placeholder</title>
    <desc>Created with Sketch.</desc>
    <g id="Page-1" stroke="none" stroke-width="1" fill="none" fill-rule="evenodd">
        <path d="M32.30941,1.72037008 L32.30941,16.8072801 L23.76705,16.8072801 C22.7337,12.9494401 20.59811,11.0205201 17.15361,11.0205201 C15.36247,11.0205201 14.26023,11.8472001 14.26023,13.2250001 C14.26023,14.9472501 14.88024,15.3605901 22.38925,17.9095201 C27.21155,19.6317701 29.76048,21.0095701 31.55162,23.1451601 C33.54943,25.4874201 34.78945,29.3452601 34.78945,33.2031001 C34.78945,42.0210201 28.86491,48.5655701 20.87367,48.5655701 C17.01583,48.5655701 14.4669,47.3944401 12.12464,44.5010601 L11.0224,47.6700001 L2.27337,47.6700001 L2.27337,32.4453101 L11.0224,32.4453101 C12.95132,36.0964801 15.22469,37.8187301 17.98029,37.8187301 C19.77143,37.8187301 21.08034,36.7164901 21.08034,35.2698001 C21.08034,33.6853301 19.84032,32.7897601 16.5336,31.8941901 C10.19572,30.3097201 8.33569,29.4830401 5.58009,27.2096701 C2.82449,25.0051901 1.17113,20.7340101 1.17113,15.9117101 C1.17113,11.4338601 2.68671,7.23157008 5.30453,4.40708008 C7.5779,1.99593008 10.81573,0.824800076 15.08691,0.824800076 C18.87586,0.824800076 20.94256,1.58259008 23.62927,3.92485008 L24.52484,1.72037008 L32.30941,1.72037008 Z M77.059238,1.72037008 L77.059238,20.4584501 L68.723548,20.4584501 L68.723548,19.0806501 C68.723548,14.3272401 66.174618,11.3649701 62.110108,11.3649701 C59.630068,11.3649701 57.287808,12.8116601 56.392238,14.8783601 C55.496668,16.9450601 55.289998,18.9428701 55.289998,25.8318701 C55.289998,31.8253001 55.841118,34.3742301 57.632258,36.3720401 C58.803388,37.6120601 60.525638,38.3009601 62.454558,38.3009601 C64.796818,38.3009601 66.725738,37.2676101 67.759088,35.6142501 C68.310208,34.6497901 68.585768,33.4097701 68.723548,30.8608401 L77.059238,30.8608401 L77.059238,42.2965801 C74.234748,44.5699501 72.650278,45.4655201 69.412448,46.6366501 C65.761278,47.9455601 62.385668,48.5655701 58.665608,48.5655701 C45.920958,48.5655701 38.136388,39.6098701 38.136388,25.0051901 C38.136388,10.3316201 45.783178,0.824800076 57.701148,0.824800076 C62.041218,0.824800076 64.521258,1.58259008 67.414638,3.71818008 L68.172428,1.72037008 L77.059238,1.72037008 Z M105.068796,0.824800076 C118.571236,0.824800076 128.146946,10.6760701 128.146946,24.6607401 C128.146946,31.3430701 125.873576,37.5431701 121.740176,41.9521301 C117.468996,46.4299801 112.026686,48.5655701 104.724346,48.5655701 C97.422006,48.5655701 91.979696,46.4299801 87.708516,41.9521301 C83.575116,37.5431701 81.301746,31.3430701 81.301746,24.6607401 C81.301746,17.9784101 83.506226,11.9849801 87.639626,7.64491008 C92.117476,2.96039008 97.559786,0.824800076 105.068796,0.824800076 Z M104.724346,11.2271901 C102.588756,11.2271901 100.728726,12.3294301 99.833156,14.1894601 C98.799806,16.2561601 98.455356,18.8050901 98.455356,24.6607401 C98.455356,30.5852801 98.799806,33.0653201 99.833156,35.2009101 C100.659836,36.9920501 102.588756,38.1631801 104.655456,38.1631801 C106.859936,38.1631801 108.788856,37.0609401 109.615536,35.2009101 C110.717776,33.0653201 110.993336,30.6541701 110.993336,24.4540701 C110.993336,18.8739801 110.648886,16.1872701 109.615536,14.1894601 C108.719966,12.3294301 106.859936,11.2271901 104.724346,11.2271901 Z M171.587864,1.72037008 L171.587864,20.3206701 L164.009964,20.3206701 L162.081044,11.8472001 L159.049884,11.8472001 L159.049884,37.5431701 L163.527734,37.5431701 L163.527734,47.6700001 L139.071784,47.6700001 L139.071784,37.5431701 L143.480744,37.5431701 L143.480744,11.8472001 L140.449584,11.8472001 L138.313994,20.3206701 L130.873874,20.3206701 L130.873874,1.72037008 L171.587864,1.72037008 Z M214.684332,1.72037008 L214.684332,20.3206701 L207.106432,20.3206701 L205.177512,11.8472001 L202.146352,11.8472001 L202.146352,37.5431701 L206.624202,37.5431701 L206.624202,47.6700001 L182.168252,47.6700001 L182.168252,37.5431701 L186.577212,37.5431701 L186.577212,11.8472001 L183.546052,11.8472001 L181.410462,20.3206701 L173.970342,20.3206701 L173.970342,1.72037008 L214.684332,1.72037008 Z M5.486,61.3850002 C5.32133251,61.1769991 5.09816807,61.0231673 4.8165,60.9235002 C4.53483193,60.823833 4.26833459,60.7740002 4.017,60.7740002 C3.86966593,60.7740002 3.71800078,60.7913333 3.562,60.8260002 C3.40599922,60.860667 3.25866736,60.9148331 3.12,60.9885002 C2.98133264,61.0621672 2.8686671,61.1596662 2.782,61.2810002 C2.6953329,61.4023341 2.652,61.549666 2.652,61.7230002 C2.652,62.0003349 2.75599896,62.2126661 2.964,62.3600002 C3.17200104,62.5073342 3.43416509,62.6329996 3.7505,62.7370002 C4.06683492,62.8410007 4.40699818,62.9449996 4.771,63.0490002 C5.13500182,63.1530007 5.47516508,63.3003325 5.7915,63.4910002 C6.10783491,63.6816678 6.36999896,63.9373319 6.578,64.2580002 C6.78600104,64.5786684 6.89,65.0076641 6.89,65.5450002 C6.89,66.056336 6.79466762,66.5026649 6.604,66.8840002 C6.41333238,67.2653354 6.15550163,67.5816656 5.8305,67.8330002 C5.50549837,68.0843347 5.12850215,68.2706662 4.6995,68.3920002 C4.27049785,68.5133341 3.81766905,68.5740002 3.341,68.5740002 C2.74299701,68.5740002 2.18833589,68.4830011 1.677,68.3010002 C1.16566411,68.1189992 0.68900221,67.8243355 0.247,67.4170002 L1.69,65.8310002 C1.89800104,66.1083349 2.16016509,66.3228327 2.4765,66.4745002 C2.79283492,66.6261676 3.11999831,66.7020002 3.458,66.7020002 C3.62266749,66.7020002 3.78949916,66.6825003 3.9585,66.6435002 C4.12750084,66.6045 4.27916599,66.5460005 4.4135,66.4680002 C4.547834,66.3899998 4.65616625,66.2903341 4.7385,66.1690002 C4.82083374,66.0476662 4.862,65.9046676 4.862,65.7400002 C4.862,65.4626654 4.7558344,65.2438343 4.5435,65.0835002 C4.3311656,64.923166 4.06466827,64.7866674 3.744,64.6740002 C3.42333173,64.5613329 3.07666853,64.4486674 2.704,64.3360002 C2.33133147,64.2233329 1.98466827,64.0716678 1.664,63.8810002 C1.34333173,63.6903325 1.0768344,63.4390017 0.8645,63.1270002 C0.652165605,62.8149986 0.546,62.403336 0.546,61.8920002 C0.546,61.3979977 0.643499025,60.9646687 0.8385,60.5920002 C1.03350097,60.2193316 1.29349838,59.9073347 1.6185,59.6560002 C1.94350163,59.4046656 2.31833121,59.2161674 2.743,59.0905002 C3.16766879,58.9648329 3.60533108,58.9020002 4.056,58.9020002 C4.5760026,58.9020002 5.07866424,58.9756661 5.564,59.1230002 C6.04933576,59.2703342 6.48699805,59.5173318 6.877,59.8640002 L5.486,61.3850002 Z M9.246,59.1360002 L15.499,59.1360002 L15.499,61.0080002 L11.274,61.0080002 L11.274,62.7240002 L15.265,62.7240002 L15.265,64.5960002 L11.274,64.5960002 L11.274,66.4680002 L15.733,66.4680002 L15.733,68.3400002 L9.246,68.3400002 L9.246,59.1360002 Z M21.157,59.1360002 L22.834,59.1360002 L26.838,68.3400002 L24.55,68.3400002 L23.757,66.3900002 L20.182,66.3900002 L19.415,68.3400002 L17.179,68.3400002 L21.157,59.1360002 Z M21.937,61.8140002 L20.819,64.6740002 L23.068,64.6740002 L21.937,61.8140002 Z M29.116,60.9300002 L26.49,60.9300002 L26.49,59.1360002 L33.77,59.1360002 L33.77,60.9300002 L31.144,60.9300002 L31.144,68.3400002 L29.116,68.3400002 L29.116,60.9300002 Z M37.348,60.9300002 L34.722,60.9300002 L34.722,59.1360002 L42.002,59.1360002 L42.002,60.9300002 L39.376,60.9300002 L39.376,68.3400002 L37.348,68.3400002 L37.348,60.9300002 Z M43.877,59.1360002 L45.905,59.1360002 L45.905,66.4680002 L49.662,66.4680002 L49.662,68.3400002 L43.877,68.3400002 L43.877,59.1360002 Z M51.628,59.1360002 L57.881,59.1360002 L57.881,61.0080002 L53.656,61.0080002 L53.656,62.7240002 L57.647,62.7240002 L57.647,64.5960002 L53.656,64.5960002 L53.656,66.4680002 L58.115,66.4680002 L58.115,68.3400002 L51.628,68.3400002 L51.628,59.1360002 Z M71.147,61.5280002 C70.9476657,61.2853323 70.7028348,61.0990008 70.4125,60.9690002 C70.1221652,60.8389995 69.7863352,60.7740002 69.405,60.7740002 C69.0236648,60.7740002 68.6705016,60.8476661 68.3455,60.9950002 C68.0204984,61.1423342 67.7388345,61.3481655 67.5005,61.6125002 C67.2621655,61.8768348 67.075834,62.1909983 66.9415,62.5550002 C66.807166,62.919002 66.74,63.3133314 66.74,63.7380002 C66.74,64.1713357 66.807166,64.5678317 66.9415,64.9275002 C67.075834,65.2871686 67.2599988,65.5991655 67.494,65.8635002 C67.7280012,66.1278348 68.0031651,66.3336661 68.3195,66.4810002 C68.6358349,66.6283342 68.9759982,66.7020002 69.34,66.7020002 C69.7560021,66.7020002 70.1243317,66.6153344 70.445,66.4420002 C70.7656683,66.268666 71.029999,66.0260017 71.238,65.7140002 L72.928,66.9750002 C72.5379981,67.5210029 72.044003,67.9239989 71.446,68.1840002 C70.847997,68.4440015 70.2326698,68.5740002 69.6,68.5740002 C68.8806631,68.5740002 68.2176697,68.4613346 67.611,68.2360002 C67.0043303,68.0106657 66.4800022,67.6878356 66.038,67.2675002 C65.5959978,66.8471647 65.2515012,66.3380031 65.0045,65.7400002 C64.7574988,65.1419972 64.634,64.4746705 64.634,63.7380002 C64.634,63.0013298 64.7574988,62.3340031 65.0045,61.7360002 C65.2515012,61.1379972 65.5959978,60.6288356 66.038,60.2085002 C66.4800022,59.7881647 67.0043303,59.4653346 67.611,59.2400002 C68.2176697,59.0146657 68.8806631,58.9020002 69.6,58.9020002 C69.8600013,58.9020002 70.1308319,58.9258332 70.4125,58.9735002 C70.6941681,59.0211671 70.9714986,59.0969996 71.2445,59.2010002 C71.5175014,59.3050007 71.7796654,59.443666 72.031,59.6170002 C72.2823346,59.7903344 72.5076657,60.0026656 72.707,60.2540002 L71.147,61.5280002 Z M74.777,59.1360002 L76.805,59.1360002 L76.805,68.3400002 L74.777,68.3400002 L74.777,59.1360002 Z M81.202,60.9300002 L78.576,60.9300002 L78.576,59.1360002 L85.856,59.1360002 L85.856,60.9300002 L83.23,60.9300002 L83.23,68.3400002 L81.202,68.3400002 L81.202,60.9300002 Z M89.915,64.4140002 L86.457,59.1360002 L88.979,59.1360002 L90.929,62.5810002 L92.996,59.1360002 L95.401,59.1360002 L91.943,64.4140002 L91.943,68.3400002 L89.915,68.3400002 L89.915,64.4140002 Z M107.484,61.5280002 C107.284666,61.2853323 107.039835,61.0990008 106.7495,60.9690002 C106.459165,60.8389995 106.123335,60.7740002 105.742,60.7740002 C105.360665,60.7740002 105.007502,60.8476661 104.6825,60.9950002 C104.357498,61.1423342 104.075835,61.3481655 103.8375,61.6125002 C103.599165,61.8768348 103.412834,62.1909983 103.2785,62.5550002 C103.144166,62.919002 103.077,63.3133314 103.077,63.7380002 C103.077,64.1713357 103.144166,64.5678317 103.2785,64.9275002 C103.412834,65.2871686 103.596999,65.5991655 103.831,65.8635002 C104.065001,66.1278348 104.340165,66.3336661 104.6565,66.4810002 C104.972835,66.6283342 105.312998,66.7020002 105.677,66.7020002 C106.093002,66.7020002 106.461332,66.6153344 106.782,66.4420002 C107.102668,66.268666 107.366999,66.0260017 107.575,65.7140002 L109.265,66.9750002 C108.874998,67.5210029 108.381003,67.9239989 107.783,68.1840002 C107.184997,68.4440015 106.56967,68.5740002 105.937,68.5740002 C105.217663,68.5740002 104.55467,68.4613346 103.948,68.2360002 C103.34133,68.0106657 102.817002,67.6878356 102.375,67.2675002 C101.932998,66.8471647 101.588501,66.3380031 101.3415,65.7400002 C101.094499,65.1419972 100.971,64.4746705 100.971,63.7380002 C100.971,63.0013298 101.094499,62.3340031 101.3415,61.7360002 C101.588501,61.1379972 101.932998,60.6288356 102.375,60.2085002 C102.817002,59.7881647 103.34133,59.4653346 103.948,59.2400002 C104.55467,59.0146657 105.217663,58.9020002 105.937,58.9020002 C106.197001,58.9020002 106.467832,58.9258332 106.7495,58.9735002 C107.031168,59.0211671 107.308499,59.0969996 107.5815,59.2010002 C107.854501,59.3050007 108.116665,59.443666 108.368,59.6170002 C108.619335,59.7903344 108.844666,60.0026656 109.044,60.2540002 L107.484,61.5280002 Z M110.646,63.7380002 C110.646,63.0013298 110.769499,62.3340031 111.0165,61.7360002 C111.263501,61.1379972 111.607998,60.6288356 112.05,60.2085002 C112.492002,59.7881647 113.01633,59.4653346 113.623,59.2400002 C114.22967,59.0146657 114.892663,58.9020002 115.612,58.9020002 C116.331337,58.9020002 116.99433,59.0146657 117.601,59.2400002 C118.20767,59.4653346 118.731998,59.7881647 119.174,60.2085002 C119.616002,60.6288356 119.960499,61.1379972 120.2075,61.7360002 C120.454501,62.3340031 120.578,63.0013298 120.578,63.7380002 C120.578,64.4746705 120.454501,65.1419972 120.2075,65.7400002 C119.960499,66.3380031 119.616002,66.8471647 119.174,67.2675002 C118.731998,67.6878356 118.20767,68.0106657 117.601,68.2360002 C116.99433,68.4613346 116.331337,68.5740002 115.612,68.5740002 C114.892663,68.5740002 114.22967,68.4613346 113.623,68.2360002 C113.01633,68.0106657 112.492002,67.6878356 112.05,67.2675002 C111.607998,66.8471647 111.263501,66.3380031 111.0165,65.7400002 C110.769499,65.1419972 110.646,64.4746705 110.646,63.7380002 Z M112.752,63.7380002 C112.752,64.1713357 112.819166,64.5678317 112.9535,64.9275002 C113.087834,65.2871686 113.280665,65.5991655 113.532,65.8635002 C113.783335,66.1278348 114.084498,66.3336661 114.4355,66.4810002 C114.786502,66.6283342 115.178664,66.7020002 115.612,66.7020002 C116.045336,66.7020002 116.437498,66.6283342 116.7885,66.4810002 C117.139502,66.3336661 117.440665,66.1278348 117.692,65.8635002 C117.943335,65.5991655 118.136166,65.2871686 118.2705,64.9275002 C118.404834,64.5678317 118.472,64.1713357 118.472,63.7380002 C118.472,63.3133314 118.404834,62.919002 118.2705,62.5550002 C118.136166,62.1909983 117.943335,61.8768348 117.692,61.6125002 C117.440665,61.3481655 117.139502,61.1423342 116.7885,60.9950002 C116.437498,60.8476661 116.045336,60.7740002 115.612,60.7740002 C115.178664,60.7740002 114.786502,60.8476661 114.4355,60.9950002 C114.084498,61.1423342 113.783335,61.3481655 113.532,61.6125002 C113.280665,61.8768348 113.087834,62.1909983 112.9535,62.5550002 C112.819166,62.919002 112.752,63.3133314 112.752,63.7380002 Z M130.487,64.7910002 C130.487,65.3370029 130.404667,65.8396645 130.24,66.2990002 C130.075333,66.7583358 129.830502,67.1569985 129.5055,67.4950002 C129.180498,67.8330018 128.775336,68.0973325 128.29,68.2880002 C127.804664,68.4786678 127.24567,68.5740002 126.613,68.5740002 C125.971663,68.5740002 125.408336,68.4786678 124.923,68.2880002 C124.437664,68.0973325 124.032502,67.8330018 123.7075,67.4950002 C123.382498,67.1569985 123.137667,66.7583358 122.973,66.2990002 C122.808333,65.8396645 122.726,65.3370029 122.726,64.7910002 L122.726,59.1360002 L124.754,59.1360002 L124.754,64.7130002 C124.754,64.9990016 124.7995,65.2633323 124.8905,65.5060002 C124.9815,65.748668 125.109333,65.9588326 125.274,66.1365002 C125.438667,66.3141677 125.635832,66.452833 125.8655,66.5525002 C126.095168,66.6521673 126.344332,66.7020002 126.613,66.7020002 C126.881668,66.7020002 127.128666,66.6521673 127.354,66.5525002 C127.579334,66.452833 127.774333,66.3141677 127.939,66.1365002 C128.103667,65.9588326 128.2315,65.748668 128.3225,65.5060002 C128.4135,65.2633323 128.459,64.9990016 128.459,64.7130002 L128.459,59.1360002 L130.487,59.1360002 L130.487,64.7910002 Z M133.129,59.1360002 L135.885,59.1360002 L139.798,65.5320002 L139.824,65.5320002 L139.824,59.1360002 L141.852,59.1360002 L141.852,68.3400002 L139.2,68.3400002 L135.183,61.7880002 L135.157,61.7880002 L135.157,68.3400002 L133.129,68.3400002 L133.129,59.1360002 Z M150.513,61.5280002 C150.313666,61.2853323 150.068835,61.0990008 149.7785,60.9690002 C149.488165,60.8389995 149.152335,60.7740002 148.771,60.7740002 C148.389665,60.7740002 148.036502,60.8476661 147.7115,60.9950002 C147.386498,61.1423342 147.104835,61.3481655 146.8665,61.6125002 C146.628165,61.8768348 146.441834,62.1909983 146.3075,62.5550002 C146.173166,62.919002 146.106,63.3133314 146.106,63.7380002 C146.106,64.1713357 146.173166,64.5678317 146.3075,64.9275002 C146.441834,65.2871686 146.625999,65.5991655 146.86,65.8635002 C147.094001,66.1278348 147.369165,66.3336661 147.6855,66.4810002 C148.001835,66.6283342 148.341998,66.7020002 148.706,66.7020002 C149.122002,66.7020002 149.490332,66.6153344 149.811,66.4420002 C150.131668,66.268666 150.395999,66.0260017 150.604,65.7140002 L152.294,66.9750002 C151.903998,67.5210029 151.410003,67.9239989 150.812,68.1840002 C150.213997,68.4440015 149.59867,68.5740002 148.966,68.5740002 C148.246663,68.5740002 147.58367,68.4613346 146.977,68.2360002 C146.37033,68.0106657 145.846002,67.6878356 145.404,67.2675002 C144.961998,66.8471647 144.617501,66.3380031 144.3705,65.7400002 C144.123499,65.1419972 144,64.4746705 144,63.7380002 C144,63.0013298 144.123499,62.3340031 144.3705,61.7360002 C144.617501,61.1379972 144.961998,60.6288356 145.404,60.2085002 C145.846002,59.7881647 146.37033,59.4653346 146.977,59.2400002 C147.58367,59.0146657 148.246663,58.9020002 148.966,58.9020002 C149.226001,58.9020002 149.496832,58.9258332 149.7785,58.9735002 C150.060168,59.0211671 150.337499,59.0969996 150.6105,59.2010002 C150.883501,59.3050007 151.145665,59.443666 151.397,59.6170002 C151.648335,59.7903344 151.873666,60.0026656 152.073,60.2540002 L150.513,61.5280002 Z M154.143,59.1360002 L156.171,59.1360002 L156.171,68.3400002 L154.143,68.3400002 L154.143,59.1360002 Z M158.865,59.1360002 L160.893,59.1360002 L160.893,66.4680002 L164.65,66.4680002 L164.65,68.3400002 L158.865,68.3400002 L158.865,59.1360002 Z M171.156,59.1360002 L174.198,59.1360002 C174.93467,59.1360002 175.634497,59.2183327 176.2975,59.3830002 C176.960503,59.5476676 177.538998,59.814165 178.033,60.1825002 C178.527002,60.5508353 178.919165,61.0296639 179.2095,61.6190002 C179.499835,62.2083364 179.645,62.9233293 179.645,63.7640002 C179.645,64.5093372 179.504168,65.1658306 179.2225,65.7335002 C178.940832,66.3011697 178.561669,66.7778316 178.085,67.1635002 C177.608331,67.5491687 177.058003,67.8416658 176.434,68.0410002 C175.809997,68.2403345 175.15567,68.3400002 174.471,68.3400002 L171.156,68.3400002 L171.156,59.1360002 Z M173.184,66.4680002 L174.237,66.4680002 C174.705002,66.4680002 175.140498,66.420334 175.5435,66.3250002 C175.946502,66.2296663 176.295332,66.0715013 176.59,65.8505002 C176.884668,65.629499 177.116499,65.3391686 177.2855,64.9795002 C177.454501,64.6198317 177.539,64.1800028 177.539,63.6600002 C177.539,63.2093312 177.454501,62.8171685 177.2855,62.4835002 C177.116499,62.1498318 176.889001,61.8746679 176.603,61.6580002 C176.316999,61.4413324 175.981169,61.278834 175.5955,61.1705002 C175.209831,61.0621663 174.804669,61.0080002 174.38,61.0080002 L173.184,61.0080002 L173.184,66.4680002 Z M181.767,59.1360002 L183.795,59.1360002 L183.795,68.3400002 L181.767,68.3400002 L181.767,59.1360002 Z M190.961,61.3850002 C190.796333,61.1769991 190.573168,61.0231673 190.2915,60.9235002 C190.009832,60.823833 189.743335,60.7740002 189.492,60.7740002 C189.344666,60.7740002 189.193001,60.7913333 189.037,60.8260002 C188.880999,60.860667 188.733667,60.9148331 188.595,60.9885002 C188.456333,61.0621672 188.343667,61.1596662 188.257,61.2810002 C188.170333,61.4023341 188.127,61.549666 188.127,61.7230002 C188.127,62.0003349 188.230999,62.2126661 188.439,62.3600002 C188.647001,62.5073342 188.909165,62.6329996 189.2255,62.7370002 C189.541835,62.8410007 189.881998,62.9449996 190.246,63.0490002 C190.610002,63.1530007 190.950165,63.3003325 191.2665,63.4910002 C191.582835,63.6816678 191.844999,63.9373319 192.053,64.2580002 C192.261001,64.5786684 192.365,65.0076641 192.365,65.5450002 C192.365,66.056336 192.269668,66.5026649 192.079,66.8840002 C191.888332,67.2653354 191.630502,67.5816656 191.3055,67.8330002 C190.980498,68.0843347 190.603502,68.2706662 190.1745,68.3920002 C189.745498,68.5133341 189.292669,68.5740002 188.816,68.5740002 C188.217997,68.5740002 187.663336,68.4830011 187.152,68.3010002 C186.640664,68.1189992 186.164002,67.8243355 185.722,67.4170002 L187.165,65.8310002 C187.373001,66.1083349 187.635165,66.3228327 187.9515,66.4745002 C188.267835,66.6261676 188.594998,66.7020002 188.933,66.7020002 C189.097667,66.7020002 189.264499,66.6825003 189.4335,66.6435002 C189.602501,66.6045 189.754166,66.5460005 189.8885,66.4680002 C190.022834,66.3899998 190.131166,66.2903341 190.2135,66.1690002 C190.295834,66.0476662 190.337,65.9046676 190.337,65.7400002 C190.337,65.4626654 190.230834,65.2438343 190.0185,65.0835002 C189.806166,64.923166 189.539668,64.7866674 189.219,64.6740002 C188.898332,64.5613329 188.551669,64.4486674 188.179,64.3360002 C187.806331,64.2233329 187.459668,64.0716678 187.139,63.8810002 C186.818332,63.6903325 186.551834,63.4390017 186.3395,63.1270002 C186.127166,62.8149986 186.021,62.403336 186.021,61.8920002 C186.021,61.3979977 186.118499,60.9646687 186.3135,60.5920002 C186.508501,60.2193316 186.768498,59.9073347 187.0935,59.6560002 C187.418502,59.4046656 187.793331,59.2161674 188.218,59.0905002 C188.642669,58.9648329 189.080331,58.9020002 189.531,58.9020002 C190.051003,58.9020002 190.553664,58.9756661 191.039,59.1230002 C191.524336,59.2703342 191.961998,59.5173318 192.352,59.8640002 L190.961,61.3850002 Z M196.424,60.9300002 L193.798,60.9300002 L193.798,59.1360002 L201.078,59.1360002 L201.078,60.9300002 L198.452,60.9300002 L198.452,68.3400002 L196.424,68.3400002 L196.424,60.9300002 Z M210.886,66.4940002 L206.869,66.4940002 L206.869,64.8560002 L210.626,59.1360002 L212.758,59.1360002 L212.758,64.8560002 L213.941,64.8560002 L213.941,66.4940002 L212.758,66.4940002 L212.758,68.3400002 L210.886,68.3400002 L210.886,66.4940002 Z M210.886,61.6840002 L210.86,61.6840002 L208.819,64.8560002 L210.886,64.8560002 L210.886,61.6840002 Z" id="Logo-placeholder" fill="#FFFFFF"></path>
    </g>
</svg>