<?xml version="1.0" encoding="UTF-8"?>
<svg width="2243px" height="1100px" viewBox="0 0 2243 1100" version="1.1" xmlns="http://www.w3.org/2000/svg" xmlns:xlink="http://www.w3.org/1999/xlink">
    <!-- Generator: Sketch 50.2 (55047) - http://www.bohemiancoding.com/sketch -->
    <title>SDSA-square</title>
    <desc>Created with Sketch.</desc>
    <defs></defs>
    <g id="SDSA-square" stroke="none" stroke-width="1" fill="none" fill-rule="evenodd">
        <g id="Group" transform="translate(83.000000, 149.000000)">
            <rect id="square" fill="#FF0012" x="0" y="0" width="800" height="800"></rect>
            <path d="M928.984,204.2 C955.024,204.2 967.92,215.98 967.92,247.476 C967.92,279.096 955.024,291 928.984,291 L904.804,291 L904.804,204.2 L928.984,204.2 Z M930.472,278.6 C946.592,278.6 953.784,272.276 953.784,247.476 C953.784,222.924 946.592,216.6 930.472,216.6 L918.94,216.6 L918.94,278.6 L930.472,278.6 Z M1008.096,291.868 C990.612,291.868 980.072,281.204 980.072,262.232 L980.072,257.272 C980.072,237.556 990.488,228.132 1006.856,228.132 C1023.596,228.132 1032.524,237.556 1032.524,255.66 C1032.524,262.976 1029.424,264.836 1022.108,264.836 L993.836,264.836 C993.836,276.12 999.54,280.584 1010.328,280.584 C1016.404,280.584 1021.364,279.096 1026.076,275.252 L1031.036,282.816 C1026.572,287.28 1019.504,291.868 1008.096,291.868 Z M993.836,255.164 L1019.628,255.164 C1019.628,243.88 1014.916,239.416 1006.856,239.416 C999.168,239.416 993.836,243.88 993.836,255.164 Z M1112.628,228.132 C1125.4,228.132 1130.732,237.308 1130.732,250.328 L1130.732,291 L1116.968,291 L1116.968,250.08 C1116.968,242.764 1113.744,239.664 1108.04,239.664 C1101.592,239.664 1098.12,243.508 1095.64,247.476 L1095.64,291 L1081.876,291 L1081.876,250.08 C1081.876,242.764 1078.652,239.664 1072.948,239.664 C1066.624,239.664 1063.152,243.508 1060.548,247.476 L1060.548,291 L1046.784,291 L1046.784,229 L1060.548,229 L1060.548,238.052 C1063.4,234.084 1068.856,228.132 1078.156,228.132 C1085.596,228.132 1090.68,231.852 1093.408,238.052 L1093.656,238.052 C1096.508,234.084 1102.46,228.132 1112.628,228.132 Z M1173.14,291.868 C1155.656,291.868 1145.364,282.196 1145.364,261.736 L1145.364,258.264 C1145.364,237.804 1155.656,228.132 1173.14,228.132 C1190.624,228.132 1200.916,237.804 1200.916,258.264 L1200.916,261.736 C1200.916,282.196 1190.624,291.868 1173.14,291.868 Z M1173.14,280.584 C1181.2,280.584 1187.152,276.74 1187.152,261.736 L1187.152,258.264 C1187.152,243.26 1181.2,239.416 1173.14,239.416 C1165.08,239.416 1159.128,243.26 1159.128,258.264 L1159.128,261.736 C1159.128,276.74 1165.08,280.584 1173.14,280.584 Z M1241.712,280.584 C1248.284,280.584 1251.756,278.476 1256.84,274.756 L1262.172,282.692 C1257.336,286.908 1251.384,291.868 1239.852,291.868 C1222.244,291.868 1212.572,281.204 1212.572,261.736 L1212.572,258.264 C1212.572,238.796 1222.244,228.132 1239.852,228.132 C1251.384,228.132 1257.336,233.092 1262.172,237.308 L1256.84,245.12 C1251.756,241.524 1248.284,239.416 1241.712,239.416 C1231.792,239.416 1226.336,244.376 1226.336,258.264 L1226.336,261.736 C1226.336,275.624 1231.792,280.584 1241.712,280.584 Z M1311.896,241.028 C1310.284,240.656 1308.424,240.408 1306.564,240.408 C1298.876,240.408 1292.304,245.244 1290.196,251.94 L1290.196,291 L1276.432,291 L1276.432,229 L1290.196,229 L1290.196,240.036 C1292.676,234.828 1298.752,228.132 1307.804,228.132 C1309.168,228.132 1310.78,228.256 1311.896,228.504 L1311.896,241.028 Z M1372.904,285.544 C1372.904,288.148 1372.904,289.636 1373.896,291 L1363.604,291 C1360.752,291 1359.14,288.52 1359.14,285.544 L1359.14,280.956 C1355.42,286.908 1349.22,291.868 1339.796,291.868 C1329.876,291.868 1321.444,286.164 1321.444,273.516 C1321.444,259.876 1331.24,255.784 1345.996,254.048 L1359.14,252.436 L1359.14,250.08 C1359.14,242.64 1355.792,239.416 1347.484,239.416 C1339.672,239.416 1333.596,242.144 1329.876,244.5 L1326.156,234.828 C1333.224,230.612 1340.416,228.132 1349.592,228.132 C1365.092,228.132 1372.904,235.2 1372.904,250.576 L1372.904,285.544 Z M1344.756,280.708 C1354.552,280.708 1358.52,274.756 1359.14,269.176 L1359.14,262.604 L1347.484,263.968 C1339.672,264.836 1334.96,266.572 1334.96,273.02 C1334.96,277.856 1337.936,280.708 1344.756,280.708 Z M1409.112,271.408 C1409.112,278.476 1412.088,281.328 1421.884,280.088 L1421.884,289.884 C1417.916,291.496 1414.32,291.868 1411.592,291.868 C1398.448,291.868 1395.224,284.056 1395.224,271.408 L1395.224,240.16 L1384.684,240.16 L1384.684,229 L1395.224,229 L1395.224,213.624 L1409.112,212.012 L1409.112,229 L1422.504,229 L1422.628,240.16 L1409.112,240.16 L1409.112,271.408 Z M1435.524,209.284 C1435.524,205.316 1437.508,203.332 1441.352,203.332 L1444.948,203.332 C1449.04,203.332 1450.776,205.316 1450.776,209.284 L1450.776,212.384 C1450.776,216.352 1449.04,218.336 1444.948,218.336 L1441.352,218.336 C1437.508,218.336 1435.524,216.352 1435.524,212.384 L1435.524,209.284 Z M1436.268,229 L1450.032,229 L1450.032,291 L1436.268,291 L1436.268,229 Z M1494.176,280.584 C1500.748,280.584 1504.22,278.476 1509.304,274.756 L1514.636,282.692 C1509.8,286.908 1503.848,291.868 1492.316,291.868 C1474.708,291.868 1465.036,281.204 1465.036,261.736 L1465.036,258.264 C1465.036,238.796 1474.708,228.132 1492.316,228.132 C1503.848,228.132 1509.8,233.092 1514.636,237.308 L1509.304,245.12 C1504.22,241.524 1500.748,239.416 1494.176,239.416 C1484.256,239.416 1478.8,244.376 1478.8,258.264 L1478.8,261.736 C1478.8,275.624 1484.256,280.584 1494.176,280.584 Z M1588.912,239.54 C1603.916,245.368 1618.672,250.452 1618.672,266.572 C1618.672,281.824 1605.032,291.992 1588.168,291.992 C1574.652,291.992 1561.88,285.172 1556.672,273.268 L1566.84,266.696 C1572.172,275.5 1580.604,279.22 1588.168,279.22 C1595.112,279.22 1604.412,276.368 1604.412,267.068 C1604.412,259.256 1597.592,255.908 1586.06,251.816 C1569.444,246.112 1560.268,238.796 1560.268,226.644 C1560.268,212.88 1572.544,203.208 1588.416,203.208 C1603.792,203.208 1613.836,211.888 1617.928,219.824 L1608.256,226.892 C1602.056,218.584 1595.856,215.98 1588.664,215.98 C1581.472,215.98 1574.528,219.328 1574.528,226.768 C1574.528,231.976 1577.876,235.324 1588.912,239.54 Z M1656.74,291.868 C1639.256,291.868 1628.964,282.196 1628.964,261.736 L1628.964,258.264 C1628.964,237.804 1639.256,228.132 1656.74,228.132 C1674.224,228.132 1684.516,237.804 1684.516,258.264 L1684.516,261.736 C1684.516,282.196 1674.224,291.868 1656.74,291.868 Z M1656.74,280.584 C1664.8,280.584 1670.752,276.74 1670.752,261.736 L1670.752,258.264 C1670.752,243.26 1664.8,239.416 1656.74,239.416 C1648.68,239.416 1642.728,243.26 1642.728,258.264 L1642.728,261.736 C1642.728,276.74 1648.68,280.584 1656.74,280.584 Z M1725.312,280.584 C1731.884,280.584 1735.356,278.476 1740.44,274.756 L1745.772,282.692 C1740.936,286.908 1734.984,291.868 1723.452,291.868 C1705.844,291.868 1696.172,281.204 1696.172,261.736 L1696.172,258.264 C1696.172,238.796 1705.844,228.132 1723.452,228.132 C1734.984,228.132 1740.936,233.092 1745.772,237.308 L1740.44,245.12 C1735.356,241.524 1731.884,239.416 1725.312,239.416 C1715.392,239.416 1709.936,244.376 1709.936,258.264 L1709.936,261.736 C1709.936,275.624 1715.392,280.584 1725.312,280.584 Z M1760.032,209.284 C1760.032,205.316 1762.016,203.332 1765.86,203.332 L1769.456,203.332 C1773.548,203.332 1775.284,205.316 1775.284,209.284 L1775.284,212.384 C1775.284,216.352 1773.548,218.336 1769.456,218.336 L1765.86,218.336 C1762.016,218.336 1760.032,216.352 1760.032,212.384 L1760.032,209.284 Z M1760.776,229 L1774.54,229 L1774.54,291 L1760.776,291 L1760.776,229 Z M1840.26,285.544 C1840.26,288.148 1840.26,289.636 1841.252,291 L1830.96,291 C1828.108,291 1826.496,288.52 1826.496,285.544 L1826.496,280.956 C1822.776,286.908 1816.576,291.868 1807.152,291.868 C1797.232,291.868 1788.8,286.164 1788.8,273.516 C1788.8,259.876 1798.596,255.784 1813.352,254.048 L1826.496,252.436 L1826.496,250.08 C1826.496,242.64 1823.148,239.416 1814.84,239.416 C1807.028,239.416 1800.952,242.144 1797.232,244.5 L1793.512,234.828 C1800.58,230.612 1807.772,228.132 1816.948,228.132 C1832.448,228.132 1840.26,235.2 1840.26,250.576 L1840.26,285.544 Z M1812.112,280.708 C1821.908,280.708 1825.876,274.756 1826.496,269.176 L1826.496,262.604 L1814.84,263.968 C1807.028,264.836 1802.316,266.572 1802.316,273.02 C1802.316,277.856 1805.292,280.708 1812.112,280.708 Z M1857.62,291 L1857.62,201.1 L1871.384,201.1 L1871.384,291 L1857.62,291 Z M1888.62,209.284 C1888.62,205.316 1890.604,203.332 1894.448,203.332 L1898.044,203.332 C1902.136,203.332 1903.872,205.316 1903.872,209.284 L1903.872,212.384 C1903.872,216.352 1902.136,218.336 1898.044,218.336 L1894.448,218.336 C1890.604,218.336 1888.62,216.352 1888.62,212.384 L1888.62,209.284 Z M1889.364,229 L1903.128,229 L1903.128,291 L1889.364,291 L1889.364,229 Z M1942.808,253.676 C1957.564,258.264 1966.864,263.1 1966.864,274.012 C1966.864,285.668 1955.084,291.992 1942.312,291.992 C1928.424,291.992 1919.124,284.552 1917.636,273.764 L1929.168,272.028 C1930.904,277.112 1935.244,280.956 1942.436,280.956 C1947.892,280.956 1952.976,278.972 1952.976,273.516 C1952.976,270.168 1950.992,267.564 1941.32,264.712 C1925.944,260.124 1919.992,253.428 1919.992,245.244 C1919.992,235.572 1928.3,228.008 1941.816,228.008 C1955.456,228.008 1964.136,235.696 1964.88,245.616 L1954.092,247.6 C1952.48,243.26 1949.132,239.044 1941.94,239.044 C1936.112,239.044 1933.384,241.772 1933.384,245.616 C1933.384,248.592 1934.748,251.196 1942.808,253.676 Z M1999.848,271.408 C1999.848,278.476 2002.824,281.328 2012.62,280.088 L2012.62,289.884 C2008.652,291.496 2005.056,291.868 2002.328,291.868 C1989.184,291.868 1985.96,284.056 1985.96,271.408 L1985.96,240.16 L1975.42,240.16 L1975.42,229 L1985.96,229 L1985.96,213.624 L1999.848,212.012 L1999.848,229 L2013.24,229 L2013.364,240.16 L1999.848,240.16 L1999.848,271.408 Z M2048.332,253.676 C2063.088,258.264 2072.388,263.1 2072.388,274.012 C2072.388,285.668 2060.608,291.992 2047.836,291.992 C2033.948,291.992 2024.648,284.552 2023.16,273.764 L2034.692,272.028 C2036.428,277.112 2040.768,280.956 2047.96,280.956 C2053.416,280.956 2058.5,278.972 2058.5,273.516 C2058.5,270.168 2056.516,267.564 2046.844,264.712 C2031.468,260.124 2025.516,253.428 2025.516,245.244 C2025.516,235.572 2033.824,228.008 2047.34,228.008 C2060.98,228.008 2069.66,235.696 2070.404,245.616 L2059.616,247.6 C2058.004,243.26 2054.656,239.044 2047.464,239.044 C2041.636,239.044 2038.908,241.772 2038.908,245.616 C2038.908,248.592 2040.272,251.196 2048.332,253.676 Z M929.604,421.868 C912.12,421.868 901.828,412.196 901.828,391.736 L901.828,388.264 C901.828,367.804 912.12,358.132 929.604,358.132 C947.088,358.132 957.38,367.804 957.38,388.264 L957.38,391.736 C957.38,412.196 947.088,421.868 929.604,421.868 Z M929.604,410.584 C937.664,410.584 943.616,406.74 943.616,391.736 L943.616,388.264 C943.616,373.26 937.664,369.416 929.604,369.416 C921.544,369.416 915.592,373.26 915.592,388.264 L915.592,391.736 C915.592,406.74 921.544,410.584 929.604,410.584 Z M990.488,351.064 L990.488,359 L1005.244,359 L1005.244,370.16 L990.488,370.16 L990.488,421 L976.724,421 L976.724,370.16 L967.052,370.16 L967.052,359 L976.724,359 L976.724,351.064 C976.724,336.928 982.304,330.48 997.68,330.48 L1005.368,330.48 L1006.484,342.012 L997.68,342.012 C992.596,342.012 990.488,344.74 990.488,351.064 Z M1104.568,421 L1099.36,402.648 L1066.996,402.648 L1061.788,421 L1047.156,421 L1073.072,334.2 L1093.284,334.2 L1119.2,421 L1104.568,421 Z M1070.468,390.372 L1095.888,390.372 L1084.108,349.08 L1082.248,349.08 L1070.468,390.372 Z M1197.94,358.132 C1210.712,358.132 1216.044,367.308 1216.044,380.328 L1216.044,421 L1202.28,421 L1202.28,380.08 C1202.28,372.764 1199.056,369.664 1193.352,369.664 C1186.904,369.664 1183.432,373.508 1180.952,377.476 L1180.952,421 L1167.188,421 L1167.188,380.08 C1167.188,372.764 1163.964,369.664 1158.26,369.664 C1151.936,369.664 1148.464,373.508 1145.86,377.476 L1145.86,421 L1132.096,421 L1132.096,359 L1145.86,359 L1145.86,368.052 C1148.712,364.084 1154.168,358.132 1163.468,358.132 C1170.908,358.132 1175.992,361.852 1178.72,368.052 L1178.968,368.052 C1181.82,364.084 1187.772,358.132 1197.94,358.132 Z M1258.7,421.868 C1241.216,421.868 1230.676,411.204 1230.676,392.232 L1230.676,387.272 C1230.676,367.556 1241.092,358.132 1257.46,358.132 C1274.2,358.132 1283.128,367.556 1283.128,385.66 C1283.128,392.976 1280.028,394.836 1272.712,394.836 L1244.44,394.836 C1244.44,406.12 1250.144,410.584 1260.932,410.584 C1267.008,410.584 1271.968,409.096 1276.68,405.252 L1281.64,412.816 C1277.176,417.28 1270.108,421.868 1258.7,421.868 Z M1244.44,385.164 L1270.232,385.164 C1270.232,373.88 1265.52,369.416 1257.46,369.416 C1249.772,369.416 1244.44,373.88 1244.44,385.164 Z M1332.852,371.028 C1331.24,370.656 1329.38,370.408 1327.52,370.408 C1319.832,370.408 1313.26,375.244 1311.152,381.94 L1311.152,421 L1297.388,421 L1297.388,359 L1311.152,359 L1311.152,370.036 C1313.632,364.828 1319.708,358.132 1328.76,358.132 C1330.124,358.132 1331.736,358.256 1332.852,358.504 L1332.852,371.028 Z M1345.748,339.284 C1345.748,335.316 1347.732,333.332 1351.576,333.332 L1355.172,333.332 C1359.264,333.332 1361,335.316 1361,339.284 L1361,342.384 C1361,346.352 1359.264,348.336 1355.172,348.336 L1351.576,348.336 C1347.732,348.336 1345.748,346.352 1345.748,342.384 L1345.748,339.284 Z M1346.492,359 L1360.256,359 L1360.256,421 L1346.492,421 L1346.492,359 Z M1404.4,410.584 C1410.972,410.584 1414.444,408.476 1419.528,404.756 L1424.86,412.692 C1420.024,416.908 1414.072,421.868 1402.54,421.868 C1384.932,421.868 1375.26,411.204 1375.26,391.736 L1375.26,388.264 C1375.26,368.796 1384.932,358.132 1402.54,358.132 C1414.072,358.132 1420.024,363.092 1424.86,367.308 L1419.528,375.12 C1414.444,371.524 1410.972,369.416 1404.4,369.416 C1394.48,369.416 1389.024,374.376 1389.024,388.264 L1389.024,391.736 C1389.024,405.624 1394.48,410.584 1404.4,410.584 Z M1487.232,415.544 C1487.232,418.148 1487.232,419.636 1488.224,421 L1477.932,421 C1475.08,421 1473.468,418.52 1473.468,415.544 L1473.468,410.956 C1469.748,416.908 1463.548,421.868 1454.124,421.868 C1444.204,421.868 1435.772,416.164 1435.772,403.516 C1435.772,389.876 1445.568,385.784 1460.324,384.048 L1473.468,382.436 L1473.468,380.08 C1473.468,372.64 1470.12,369.416 1461.812,369.416 C1454,369.416 1447.924,372.144 1444.204,374.5 L1440.484,364.828 C1447.552,360.612 1454.744,358.132 1463.92,358.132 C1479.42,358.132 1487.232,365.2 1487.232,380.576 L1487.232,415.544 Z M1459.084,410.708 C1468.88,410.708 1472.848,404.756 1473.468,399.176 L1473.468,392.604 L1461.812,393.968 C1454,394.836 1449.288,396.572 1449.288,403.02 C1449.288,407.856 1452.264,410.708 1459.084,410.708 Z" id="Democratic-Socialist" fill="#241F20"></path>
            <path d="M932.084,569.54 C947.088,575.368 961.844,580.452 961.844,596.572 C961.844,611.824 948.204,621.992 931.34,621.992 C917.824,621.992 905.052,615.172 899.844,603.268 L910.012,596.696 C915.344,605.5 923.776,609.22 931.34,609.22 C938.284,609.22 947.584,606.368 947.584,597.068 C947.584,589.256 940.764,585.908 929.232,581.816 C912.616,576.112 903.44,568.796 903.44,556.644 C903.44,542.88 915.716,533.208 931.588,533.208 C946.964,533.208 957.008,541.888 961.1,549.824 L951.428,556.892 C945.228,548.584 939.028,545.98 931.836,545.98 C924.644,545.98 917.7,549.328 917.7,556.768 C917.7,561.976 921.048,565.324 932.084,569.54 Z M1000.16,621.868 C982.676,621.868 972.136,611.204 972.136,592.232 L972.136,587.272 C972.136,567.556 982.552,558.132 998.92,558.132 C1015.66,558.132 1024.588,567.556 1024.588,585.66 C1024.588,592.976 1021.488,594.836 1014.172,594.836 L985.9,594.836 C985.9,606.12 991.604,610.584 1002.392,610.584 C1008.468,610.584 1013.428,609.096 1018.14,605.252 L1023.1,612.816 C1018.636,617.28 1011.568,621.868 1000.16,621.868 Z M985.9,585.164 L1011.692,585.164 C1011.692,573.88 1006.98,569.416 998.92,569.416 C991.232,569.416 985.9,573.88 985.9,585.164 Z M1086.96,615.544 C1086.96,618.148 1086.96,619.636 1087.952,621 L1077.66,621 C1074.808,621 1073.196,618.52 1073.196,615.544 L1073.196,610.956 C1069.476,616.908 1063.276,621.868 1053.852,621.868 C1043.932,621.868 1035.5,616.164 1035.5,603.516 C1035.5,589.876 1045.296,585.784 1060.052,584.048 L1073.196,582.436 L1073.196,580.08 C1073.196,572.64 1069.848,569.416 1061.54,569.416 C1053.728,569.416 1047.652,572.144 1043.932,574.5 L1040.212,564.828 C1047.28,560.612 1054.472,558.132 1063.648,558.132 C1079.148,558.132 1086.96,565.2 1086.96,580.576 L1086.96,615.544 Z M1058.812,610.708 C1068.608,610.708 1072.576,604.756 1073.196,599.176 L1073.196,592.604 L1061.54,593.968 C1053.728,594.836 1049.016,596.572 1049.016,603.02 C1049.016,607.856 1051.992,610.708 1058.812,610.708 Z M1123.168,601.408 C1123.168,608.476 1126.144,611.328 1135.94,610.088 L1135.94,619.884 C1131.972,621.496 1128.376,621.868 1125.648,621.868 C1112.504,621.868 1109.28,614.056 1109.28,601.408 L1109.28,570.16 L1098.74,570.16 L1098.74,559 L1109.28,559 L1109.28,543.624 L1123.168,542.012 L1123.168,559 L1136.56,559 L1136.684,570.16 L1123.168,570.16 L1123.168,601.408 Z M1168.8,601.408 C1168.8,608.476 1171.776,611.328 1181.572,610.088 L1181.572,619.884 C1177.604,621.496 1174.008,621.868 1171.28,621.868 C1158.136,621.868 1154.912,614.056 1154.912,601.408 L1154.912,570.16 L1144.372,570.16 L1144.372,559 L1154.912,559 L1154.912,543.624 L1168.8,542.012 L1168.8,559 L1182.192,559 L1182.316,570.16 L1168.8,570.16 L1168.8,601.408 Z M1195.584,621 L1195.584,531.1 L1209.348,531.1 L1209.348,621 L1195.584,621 Z M1252.004,621.868 C1234.52,621.868 1223.98,611.204 1223.98,592.232 L1223.98,587.272 C1223.98,567.556 1234.396,558.132 1250.764,558.132 C1267.504,558.132 1276.432,567.556 1276.432,585.66 C1276.432,592.976 1273.332,594.836 1266.016,594.836 L1237.744,594.836 C1237.744,606.12 1243.448,610.584 1254.236,610.584 C1260.312,610.584 1265.272,609.096 1269.984,605.252 L1274.944,612.816 C1270.48,617.28 1263.412,621.868 1252.004,621.868 Z M1237.744,585.164 L1263.536,585.164 C1263.536,573.88 1258.824,569.416 1250.764,569.416 C1243.076,569.416 1237.744,573.88 1237.744,585.164 Z" id="Seattle" fill="#FF0012"></path>
            <g id="Windows" transform="translate(283.000000, 431.000000)" stroke="#231F20" stroke-width="10.4">
                <rect id="Rectangle-2" x="5.2" y="5.2" width="38.6" height="38.6"></rect>
                <rect id="Rectangle-2" x="44.2" y="5.2" width="38.6" height="38.6"></rect>
                <rect id="Rectangle-2" x="84.2" y="5.2" width="38.6" height="38.6"></rect>
                <rect id="Rectangle-2" x="124.2" y="5.2" width="38.6" height="38.6"></rect>
                <rect id="Rectangle-2" x="163.2" y="5.2" width="38.6" height="38.6"></rect>
                <rect id="Rectangle-2" x="204.2" y="5.2" width="38.6" height="38.6"></rect>
            </g>
            <g id="Rose" transform="translate(225.000000, 76.000000)">
                <path d="M382.795987,225.974026 L190.247492,235.064935" id="Fill-4" fill="#D8262C"></path>
                <path d="M222.772575,231.168831 L250.093645,174.025974" id="Fill-5" fill="#D8262C"></path>
                <path d="M250.093645,231.168831 L295.628763,175.324675" id="Fill-6" fill="#D8262C"></path>
                <path d="M294.327759,229.87013 L325.551839,184.415584" id="Fill-7" fill="#D8262C"></path>
                <path d="M330.755853,227.272727 L348.9699,196.103896" id="Fill-8" fill="#D8262C"></path>
                <path d="M330.755853,228.571429 L352.87291,257.142857" id="Fill-9" fill="#D8262C"></path>
                <path d="M294.327759,229.87013 L322.949833,275.324675" id="Fill-10" fill="#D8262C"></path>
                <path d="M250.093645,231.168831 L270.909699,267.532468" id="Fill-11" fill="#D8262C"></path>
                <path d="M222.772575,231.168831 L235.782609,272.727273" id="Fill-12" fill="#D8262C"></path>
                <path d="M5.50501672,235.064935 L174.635452,235.064935" id="Fill-13" fill="#D8262C"></path>
                <path d="M136.906355,235.064935 L116.090301,180.519481" id="Fill-14" fill="#D8262C"></path>
                <path d="M101.779264,235.064935 L90.0702341,179.220779" id="Fill-15" fill="#D8262C"></path>
                <path d="M67.9531773,235.064935 L40.632107,200" id="Fill-16" fill="#D8262C"></path>
                <path d="M67.9531773,235.064935 L40.632107,274.025974" id="Fill-17" fill="#D8262C"></path>
                <path d="M101.779264,235.064935 L71.8561873,280.519481" id="Fill-18" fill="#D8262C"></path>
                <path d="M136.906355,235.064935 L113.488294,274.025974" id="Fill-19" fill="#D8262C"></path>
                <path d="M230.578595,177.922078 L234.944763,178.94026" id="Fill-20" fill="#D8262C"></path>
                <path d="M205.529926,280.915467 C237.090391,302.39589 286.336642,302.005738 328.103166,278.553639 L323.000513,269.498309 C284.519103,291.105802 239.501925,291.462449 211.393151,272.331287 L205.529926,280.915467 Z" id="Path-2" fill="#FFFFFF" fill-rule="nonzero"></path>
                <rect id="Rectangle-21" fill="#FFFFFF" x="169.431438" y="251.948052" width="10.4080268" height="46.7532468" rx="5.20401338"></rect>
                <path d="M352.689374,249.739884 L340.403589,233.243236 L371.193631,231.867466 C366.847839,236.716214 360.625169,243.070759 352.689374,249.739884 Z M303.311098,234.900031 L327.739909,233.809482 L344.459662,256.262205 C338.459529,260.733456 331.712005,265.14179 324.309462,269.139071 L303.311098,234.900031 Z M195.321313,217.283472 L195.321313,211.780395 C200.804989,206.914869 219.246263,191.378742 239.316685,183.103154 L218.305725,228.201544 L195.321313,229.229177 L195.321313,217.283472 Z M182.241948,204.213664 C180.617,204.213664 179.076028,204.549217 177.640027,205.090297 C173.558762,200.107328 156.662658,182.117466 122.748684,175.830032 C105.625843,148.4237 99.9574181,123.500464 105.932357,101.748209 C110.836594,83.9093463 122.731888,71.8923367 131.133753,65.3029049 C129.563389,81.6695267 130.886022,96.6100461 134.870714,110.137046 C134.9211,110.460017 135.038668,110.753626 135.147837,111.059819 C138.33895,121.516504 143.100427,131.142695 149.621215,139.779003 C170.224888,167.067892 201.795913,177.784631 218.679421,181.752552 C202.24099,191.408103 189.661286,202.69109 187.007624,205.144825 C185.525436,204.5618 183.92568,204.213664 182.241948,204.213664 Z M13.9653185,239.954306 L57.9061057,239.954306 L39.4018487,266.86989 C26.2637003,257.545698 18.2187363,246.854124 13.9653185,239.954306 Z M39.7755449,206.910675 L57.2007018,229.468259 L16.1235187,229.468259 C21.3384692,223.428296 29.4506146,214.934598 39.7755449,206.910675 Z M169.158385,217.283472 L169.158385,229.468259 L140.450963,229.468259 L124.491199,186.844576 C151.716432,192.846789 165.509599,206.969397 169.158385,211.285454 L169.158385,217.283472 Z M112.549718,184.881588 L129.244278,229.468259 L105.810591,229.468259 L96.1910649,184.14337 C96.9216618,184.122398 97.6438611,184.084648 98.3786569,184.084648 C103.413058,184.084648 108.103154,184.390841 112.549718,184.881588 Z M85.6855848,185.191975 L95.082573,229.468259 L70.4606163,229.468259 L48.3033747,200.782629 C59.1363638,193.614368 71.7874476,187.578599 85.6855848,185.191975 Z M65.3737667,280.519481 C57.5681332,277.922078 52.2880672,274.679898 48.294977,272.456856 L70.6411662,239.954306 L91.8620681,239.954306 L65.3737667,280.519481 Z M77.0822168,283.116883 L104.399783,239.954306 L127.669716,239.954306 L100.499117,284.415584 C95.2953615,284.415584 82.2859725,284.415584 77.0822168,283.116883 Z M113.508506,284.415584 L139.825337,239.954306 L169.158385,239.954306 L169.158385,254.227912 C167.852547,257.050756 162.436053,267.146722 148.689074,275.2042 C138.226345,280.519481 126.517895,283.116883 113.508506,284.415584 Z M58.25041,135.131588 C58.25041,116.483202 67.3072928,101.899208 85.1733271,91.7822702 C90.858547,88.5609566 96.5857552,86.3169426 101.397618,84.7692021 C99.205827,89.0475092 97.270165,93.6949251 95.8509594,98.8246992 C89.5611076,121.533282 94.1840227,146.808849 109.518161,174.059988 C105.949153,173.774767 102.258379,173.598602 98.3786569,173.598602 C89.6408854,173.598602 81.2978043,174.953399 73.4333901,177.247746 C63.3981793,164.383464 58.25041,150.244078 58.25041,135.131588 Z M98.9748912,39.8385889 C107.523715,29.3357645 118.772389,24.1137132 129.080524,25.8963411 C134.014152,26.7436137 138.221383,29.1302379 141.496473,32.7793822 C141.538461,32.8381041 141.597245,32.8842427 141.643432,32.9387701 C142.894684,34.3606781 144.019971,35.9545572 144.968908,37.745574 C143.045842,38.9032335 140.82466,40.3796689 138.98977,41.9987145 C135.89523,44.758642 134.232492,48.5294245 133.405322,51.0041315 C129.09312,53.5249771 118.852167,60.2696024 109.7365,71.7916706 C105.659433,72.6053879 96.4513925,74.8116521 86.3154097,79.5681229 C85.9165206,70.5878725 87.1845681,54.3261111 98.9748912,39.8385889 Z M196.732121,10.4860468 C220.741048,10.4860468 234.609793,23.5432722 240.748487,31.3071412 C228.210772,31.0890315 218.519865,33.0604083 217.701093,33.2365739 C217.570929,33.2659348 217.474356,33.3540176 217.348391,33.3875729 C217.163642,33.4421004 216.978893,33.4672669 216.798344,33.538572 C216.689174,33.5847106 216.609396,33.6769878 216.504425,33.7315153 C216.454039,33.7524874 216.412051,33.7902371 216.365864,33.8154036 C216.05515,33.9831804 215.761232,34.1509571 215.496705,34.3732613 C215.391735,34.4571497 215.261571,34.490705 215.160799,34.5829823 C212.280399,37.355493 209.458784,39.7253396 206.674957,41.8519099 C202.278779,30.6108677 194.10785,24.2437401 183.417621,24.2437401 C169.003028,24.2437401 160.613759,31.5462231 156.225979,37.3219377 C155.134282,34.4865106 153.799053,31.8566101 152.203497,29.4993468 C156.843207,23.6229662 170.178701,10.4860468 196.732121,10.4860468 Z M293.112133,84.3707323 C292.8728,91.6144934 290.151956,98.3003969 285.247719,104.12225 C279.352557,68.1718873 254.957338,53.1013409 249.817966,50.307858 C248.793451,47.933817 247.391041,45.7485249 245.59394,43.7771481 C245.001905,43.1270132 244.384676,42.514628 243.738056,41.9399927 C255.121092,42.5020448 268.301229,45.199056 277.916557,53.4243111 C287.934972,61.9935085 293.477432,73.2723004 293.112133,84.3707323 Z M308.979523,137.85796 C308.979523,150.709659 301.32505,163.024472 289.467546,169.395794 C283.794923,168.502383 277.878767,167.877414 271.723278,167.562833 C279.785037,158.368667 286.578749,143.688202 286.578749,120.262373 C286.578749,119.318629 286.486375,118.467162 286.461182,117.548584 C289.828646,114.767685 292.772028,111.726731 295.186357,108.438307 C300.401307,113.328999 308.979523,123.542409 308.979523,137.85796 Z M349.666215,204.167525 C359.096794,210.459153 366.322985,216.679476 371.168438,221.368836 L339.395869,222.790744 L349.666215,204.167525 Z M327.08909,191.655574 C331.963935,193.866033 336.536464,196.19813 340.743695,198.618309 L327.110084,223.340213 L304.503567,224.346873 L327.08909,191.655574 Z M296.265457,181.387637 C303.735181,183.015072 310.675852,185.145836 317.167247,187.561821 L291.344424,224.938287 L260.503996,226.314056 L296.265457,181.387637 Z M180.524625,128.139492 C191.403802,128.139492 200.574053,125.291481 207.695274,121.83528 C233.862401,109.13458 249.817966,80.5370336 251.60247,64.2249393 C260.991061,71.875559 276.081667,89.0223427 276.081667,120.262373 C276.081667,142.929012 268.989838,159.337578 255.566169,167.713832 C252.895711,168.120691 250.296633,168.657576 247.701754,169.307711 C247.571591,169.349655 247.441427,169.366433 247.315462,169.412572 C242.780722,170.574426 238.283772,172.151527 233.891793,174.026432 L231.99392,173.586018 C231.59923,173.556657 231.506856,173.493741 231.397686,173.481158 C230.923218,173.430825 183.787119,167.688666 157.951699,133.399293 C155.016715,129.498483 152.468023,125.371175 150.293028,121.029952 C161.40314,126.155532 171.555918,128.139492 180.524625,128.139492 Z M141.005209,77.0430828 C149.108957,83.8086802 162.032965,92.461766 175.637184,92.9567074 C184.484125,93.2461223 192.285557,90.2219464 198.923912,83.8715965 C216.743759,66.8338677 221.958709,52.0233752 223.457693,44.1210904 C227.757298,44.8551137 234.000962,46.6125751 237.826099,50.8237715 C240.546943,53.8185865 241.668031,57.6732572 241.243949,62.6016992 C240.236229,74.3209051 226.627812,100.984825 203.105949,112.402033 C184.979587,121.206117 165.274464,119.02502 144.536428,105.980378 C142.050719,97.0546545 140.866648,87.4032971 141.005209,77.0430828 Z M163.305211,45.4968597 C165.669154,41.6883275 171.602105,34.7297869 183.417621,34.7297869 C191.559159,34.7297869 195.61943,41.1346643 197.664262,47.6779575 C190.526246,51.4487399 183.753528,52.992286 177.425887,52.1072636 C171.530725,51.2767687 166.794442,48.4497305 163.305211,45.4968597 Z M145.959832,49.8380831 C147.114511,48.8230338 148.651284,47.7912068 150.108279,46.9061844 C154.286118,52.1575966 162.847539,60.5925727 175.817734,62.4674778 C177.564448,62.7233374 179.31956,62.8491699 181.091468,62.8491699 C190.240725,62.8491699 199.759479,59.4013578 209.525965,52.7112599 C206.473413,59.1119429 201.119901,67.257504 191.668328,76.3006707 C187.095799,80.671255 181.952229,82.684576 176.044471,82.4790495 C161.487117,81.963136 146.656839,68.4025803 141.886964,63.6544983 C142.193479,60.9742648 142.55038,58.2688647 143.012252,55.5089372 C143.197,54.6532758 144.162732,51.4445455 145.959832,49.8380831 Z M230.125439,231.569151 L252.878915,182.741923 C256.133011,182.079205 259.370311,181.680735 262.532032,181.680735 C270.224295,181.680735 277.538662,182.242787 284.504526,183.211698 L246.593262,230.830934 L230.125439,231.569151 Z M387.997361,225.923975 C387.888191,225.072508 387.766425,224.569178 387.560682,224.082625 C387.124004,223.28988 387.052624,223.07177 386.909863,222.887216 C385.473862,221.041672 357.194722,185.460418 303.563028,172.214443 C313.447081,163.431331 319.476605,150.890019 319.476605,137.85796 C319.476605,117.800249 306.716352,104.441026 300.493682,99.1057253 C302.374759,94.5380033 303.437063,89.7018385 303.600818,84.7146747 C304.071087,70.4200957 297.201796,56.1129335 284.743859,45.4549156 C275.749959,37.7665461 264.597858,34.0460967 253.974811,32.4018845 C253.18543,30.7283115 236.667221,0 196.732121,0 C167.55443,0 151.65345,13.9254701 144.968908,21.8109773 C140.89604,18.6567744 136.151358,16.4714823 130.865028,15.5612934 C116.773744,13.1201417 101.804905,19.73474 90.833354,33.2239906 C74.3277415,53.5081995 75.1549116,76.3510038 76.2382105,85.0963668 C61.4793126,94.52542 47.7533276,110.032186 47.7533276,135.131588 C47.7533276,151.556931 52.8843015,166.937865 63.0118866,180.938834 C26.246905,196.147797 2.19598965,229.870923 0.911146758,231.703884 C0.453473963,232.580517 0.394690301,232.656017 0.356900804,232.748294 C0.130163823,233.318735 0.0209941649,233.914343 -2.84217094e-13,234.522533 C0.0293918309,235.512416 0.113368491,236.103829 0.344304305,236.670076 C1.15467907,238.654036 13.2935052,266.974751 47.3418419,283.819536 C70.572348,296.022794 138.226345,302.597403 169.249796,272.909878 C173.620494,268.72739 179.85639,270.12987 179.85639,270.12987 L179.655467,217.283472 C179.655467,215.861564 180.814345,214.69971 182.241948,214.69971 C183.665353,214.69971 184.82423,215.861564 184.82423,217.283472 L184.82423,293.756114 C184.82423,296.654458 187.171378,298.999138 190.072772,298.999138 C192.969966,298.999138 195.321313,296.654458 195.321313,293.756114 L195.321313,272.234552 C198.865128,276.009529 203.492242,280.015199 209.492374,283.660148 C211.973884,285.157556 215.198588,284.381588 216.705969,281.902687 C218.209151,279.42798 217.42397,276.206666 214.946658,274.696676 C201.968065,266.815363 196.618752,256.962673 195.321313,254.211135 L195.321313,239.727807 L219.07831,238.662425 L235.717688,288.780952 C236.423092,291.020772 238.493116,292.446874 240.722697,292.446874 C241.243352,292.446874 241.776604,292.371375 242.301458,292.207792 C245.06429,291.339548 246.596864,288.395066 245.727706,285.626749 L229.932293,238.180066 L246.219566,237.450238 L277.601644,288.891576 C278.558978,290.607093 280.347681,291.576003 282.18677,291.576003 C283.055928,291.576003 283.933484,291.362088 284.743859,290.909091 C287.275755,289.495572 288.174306,286.299425 286.763498,283.77019 L257.955305,236.925935 L291.331828,235.436917 L314.857889,273.79907 C313.526859,274.403066 312.212624,275.015451 310.848004,275.581698 C308.169148,276.693219 306.901101,279.759339 308.013791,282.435378 C308.853558,284.448699 310.806015,285.665081 312.863444,285.665081 C313.531058,285.665081 314.215468,285.539248 314.870486,285.266611 C318.334523,283.827925 321.639004,282.267601 324.872106,280.65275 C363.988434,261.006093 386.044904,230.537836 387.040027,229.141094 C387.531291,228.134434 387.64046,227.975046 387.707641,227.782102 C387.913384,227.178106 388.018355,226.553138 387.997361,225.923975 Z" id="Fill-21" fill="#FFFFFE"></path>
                <path d="M179.799988,294.600055 L184.799988,294.600055 L184.799988,289.250055 L179.799988,289.250055 L179.799988,294.600055 Z M182.299988,209.65 C186.635423,209.65 190.149988,213.164565 190.149988,217.5 L190.149988,299.950055 L174.449988,299.950055 L174.449988,217.5 C174.449988,213.164565 177.964553,209.65 182.299988,209.65 Z" id="Rectangle-4" stroke="#231F20" stroke-width="10.7"></path>
            </g>
            <g id="Needle" transform="translate(192.000000, 371.000000)">
                <path d="M72.411645,271.472913 L102.378866,271.472913 L82.5848538,228.648398 C71.3203315,231.186503 60.2072812,235.840201 49.5419966,242.59529 L72.411645,271.472913 Z M69.4427757,281.834713 L51.0862893,314.67961 C62.6476649,320.598222 75.4217509,324.405974 88.488096,325.983757 L101.81216,281.834713 L69.4427757,281.834713 Z M59.1452879,271.472913 L40.9854831,248.542434 C32.6736751,254.848854 24.6990259,262.494763 17.2127394,271.472913 L59.1452879,271.472913 Z M57.5182862,281.834713 L14.5866947,281.834713 C21.6190027,293.092915 31.0989864,302.345983 42.0730738,309.470525 L57.5182862,281.834713 Z M113.850358,271.472913 L141.845608,271.472913 L126.478762,229.465761 C115.529637,226.555054 104.35686,225.698535 93.2402618,226.882793 L113.850358,271.472913 Z M112.69501,281.834713 L99.1330111,326.772148 C105.437568,326.946163 111.75208,326.600762 117.975283,325.722842 L138.352699,281.834713 L112.69501,281.834713 Z M152.937278,271.472913 L178.070815,271.472913 L178.070815,281.834713 L149.833256,281.834713 L130.649254,323.152509 C145.157279,319.276227 158.739749,312.285634 170,302 L175.08242,310.90644 C123.894525,357.663834 32.678457,341.772719 1.41510634,279.618395 L0,276.805037 L1.85814905,274.259058 C2.39272668,273.526596 2.93030713,272.800966 3.47083225,272.082173 L3.47083705,271.472913 L3.93093419,271.472913 C52.6976395,207.170064 125.153449,198.181489 179,247.589983 L171.92969,255.203869 C161.606059,245.731116 150.569798,238.603152 139.157371,233.803851 L152.937278,271.472913 Z" id="leef" fill="#231F20" fill-rule="nonzero"></path>
                <path d="M174.2,180 L174.2,423" id="Line" stroke="#231F20" stroke-width="10.4" stroke-linecap="square"></path>
                <path d="M191.75917,26.4761905 C190.668124,28.5383345 188.313643,34.3680794 181.890052,38.2619048 C176.07612,41.78617 166.550622,43.5 158.518325,43.5 L118.267016,43.5 C108.94468,43.5 101.387435,51.1218191 101.387435,60.5238095 C102.685864,60.5238095 327.314136,60.5238095 328.612565,60.5238095 C328.612565,51.1218202 321.05532,43.5 311.732984,43.5 L274.078534,43.5 C263.088591,43.5 254.581908,41.67161 248.41187,37.4139332 C244.301665,34.5776588 241.491629,30.8317181 240.016369,26.4761905 C209.921687,26.4761905 193.835954,26.4761905 191.75917,26.4761905 Z M118.267016,33.0238095 L158.518325,33.0238095 C174.965096,33.0238095 183.188482,27.3492063 183.188482,16 L249.408377,16 C247.677138,27.3492063 255.900524,33.0238095 274.078534,33.0238095 L311.732984,33.0238095 C326.792141,33.0238095 339,45.3359789 339,60.5238095 C339,62.9783715 339,66.470435 339,71 L91,71 C91,66.510931 91,63.0188675 91,60.5238095 C91,45.3359789 103.207859,33.0238095 118.267016,33.0238095 Z" id="Rectangle-22" fill="#231F20" fill-rule="nonzero"></path>
                <path d="M142,177.65 L142,228.35" id="Line-2" stroke="#231F20" stroke-width="10.4" stroke-linecap="square"></path>
                <path d="M142.2,330 L142.2,423" id="Line-2" stroke="#231F20" stroke-width="10.4" stroke-linecap="square"></path>
                <rect id="Rectangle-22" stroke="#231F20" stroke-width="10.4" x="66.2" y="104.2" width="298.6" height="23.6" rx="11.8"></rect>
                <rect id="Rectangle-22" stroke="#231F20" stroke-width="10.4" x="66.2" y="152.2" width="298.6" height="23.6" rx="11.8"></rect>
                <rect id="Rectangle-22" stroke="#231F20" stroke-width="10.4" x="180.2" y="5.2" width="68.6" height="15.6" rx="7.8"></rect>
                <path d="M218,176 L218,423.002024" id="Line-4" stroke="#231F20" stroke-width="10.4" stroke-linecap="square"></path>
                <path d="M293,176 L293,423" id="Line-4" stroke="#231F20" stroke-width="10.4" stroke-linecap="square"></path>
                <path d="M244.2,176.2 L244.2,313.5 C244.2,320.293102 249.706898,325.8 256.5,325.8 C263.293102,325.8 268.8,320.293102 268.8,313.5 L268.8,176.2 L244.2,176.2 Z" id="Rectangle" stroke="#231F20" stroke-width="10.4"></path>
                <path d="M249.4,399.5 L249.8,429 L264,429 L263.6,399.5 C263.6,395.578778 260.421222,392.4 256.5,392.4 C252.578778,392.4 249.4,395.578778 249.4,399.5 Z M239,429 L239,399.5 C239,389.835017 246.835017,382 256.5,382 C266.164983,382 274,389.835017 274,399.5 L274,429 L239,429 Z" id="Combined-Shape" fill="#231F20" fill-rule="nonzero"></path>
                <polyline id="Path-5" stroke="#231F20" stroke-width="10.2" stroke-linecap="square" points="136.785867 398 120 381.593352 138 364"></polyline>
                <polyline id="Path-5" stroke="#231F20" stroke-width="10.2" stroke-linecap="square" transform="translate(306.000000, 240.000000) scale(-1, 1) translate(-306.000000, -240.000000) " points="313.785867 257 297 240.593352 315 223"></polyline>
                <rect id="Rectangle-2" stroke="#231F20" stroke-width="10.4" x="96.2" y="128.2" width="237.6" height="23.6"></rect>
            </g>
        </g>
    </g>
</svg>