<svg class="si-hr-lo__image si-hr-lo__image--full" viewBox="0 0 400 81.28" xmlns="http://www.w3.org/2000/svg">
  <title>Jacobin Logo</title>
  <path d="M13.64,54.36A13.2,13.2,0,0,0,26.56,67.83h.55a13.06,13.06,0,0,0,12.06-7.4c1.23-3.26,1.41-5.2,1.41-11.8V17H8.52V10.68H47.45V49.52c0,7.49-.88,14-5.46,18.76-3.79,4-8.72,5.9-14.88,5.9-12,0-20.25-9.07-20.25-19.81Z"></path>
  <path d="M85.16,8.48,113,72.06h-7.5L98.9,56.91H71.24l-6.6,15.15H57.42Zm11,42.09L85.07,24.51,74,50.57Z"></path>
  <path d="M152.08,9.54A30.88,30.88,0,0,1,175.5,19.93l-4.67,4.23a24.2,24.2,0,0,0-18.76-8.28c-14.44,0-25.1,10.92-25.1,25.54S137.64,67,152.08,67a24.19,24.19,0,0,0,19-8.63l4.67,4.23a30.85,30.85,0,0,1-23.69,10.74c-17.7,0-32-13.47-32-31.88S134.38,9.54,152.08,9.54Z"></path>
  <path d="M217.23,9.54c17.7,0,32,13.47,32,31.88S235,73.3,217.23,73.3s-32-13.47-32-31.88S199.53,9.54,217.23,9.54Zm0,57.41c14.44,0,25.1-10.92,25.1-25.54s-10.66-25.54-25.1-25.54S192,26.8,192,41.41,202.79,67,217.23,67Z"></path>
  <path d="M264,10.68h18.76c9.25,0,16.47,6.6,16.47,15.67,0,5.9-2.91,10.39-7.84,12.33,8.1,1.67,12.33,7.57,12.33,15.23,0,10.39-7.93,18.14-18.67,18.14H264Zm18.3,25.63c5.81,0,10-4.14,10-9.69s-4.14-9.6-10-9.6H270.86V36.31Zm2.29,29.41c7,0,12.24-5,12.24-11.8,0-6.52-5.11-11.45-12.33-11.45H270.86V65.72Z"></path>
  <path d="M319,10.68h6.87V72.06H319Z"></path>
  <path d="M345,8.48l43.06,48.61V10.68h6.87V74.26L351.86,25.65V72.06H345Z"></path>
</svg>
