<svg xmlns="http://www.w3.org/2000/svg" width="18" height="34" viewBox="0 0 18 34">
    <path fill="#FF033E" fill-rule="evenodd" d="M17.322.007L13.005 0C8.155 0 5.02 3.284 5.02 8.367v3.858H.679A.686.686 0 0 0 0 12.92v5.59c0 .383.304.693.679.693h4.34v14.105c0 .383.305.693.68.693h5.663c.375 0 .68-.31.68-.693V19.202h5.075c.375 0 .679-.31.679-.693l.002-5.59a.702.702 0 0 0-.2-.49.672.672 0 0 0-.48-.204h-5.077v-3.27c0-1.572.367-2.37 2.372-2.37l2.908-.001c.375 0 .679-.31.679-.693V.7a.686.686 0 0 0-.678-.694z"/>
</svg>
